<svg version="1.2" xmlns="http://www.w3.org/2000/svg"
	width="208.6703mm"
	height="72.877129mm"
	viewBox="0 0 208.6703 72.877129">
	<title>blog</title>


<g mask="url(#anim-mask)">
<mask id="guitar-mask">
	<!-- this was generated using Inkscape. nothing shows up without the translate() bit, but I have no idea why. -->
	<path transform="translate(-0.43301949,-85.795199)" fill="white" d="m 28.388202,85.926408 c -31.9197395,-4.076465 -40.769306,88.318492 -3.838145,70.449162 18.17522,-13.3254 21.757355,-11.41951 31.076306,-7.31378 6.588697,2.90284 14.314403,4.54588 21.754037,-0.98177 5.193045,-5.58383 -5.909833,-14.23414 2.870573,-20.0911 l 92.503757,-2.16128 c 8.67103,1.33882 4.93496,8.28067 7.96806,7.52593 6.36301,-0.59889 13.68968,-4.1894 17.08503,-2.93318 4.85618,9.72813 15.76657,0.27867 9.30227,-5.71198 -3.7132,-2.86903 -20.68887,-7.15932 -31.09401,-10.42053 -1.3482,0.003 -3.2243,2.93318 -3.2243,2.93318 l -82.719695,-1.15783 c -9.766228,-5.40381 9.374695,-12.15049 8.391234,-19.034794 -0.647656,-4.5337 -5.262552,-6.004281 -31.821353,1.31752 C 59.045419,100.4402 44.10467,85.437812 28.388202,85.926408 Z" />
</mask>
	<!-- these are the rectangles marking what week we're on -->
	<g mask="url(#guitar-mask)">
		<rect width="9%" height="100%" x="0" fill="green" opacity="100%"/>
		<rect width="9%" height="100%" x="10.2%" fill="green" opacity="100%"/>
		<rect width="9%" height="100%" x="20.3%" fill="green" opacity="100%"/>
		<rect width="9%" height="100%" x="30.4%" fill="green" opacity="100%"/>

		<!-- week 5 is red, as i didn't have a laptop and as such I couldn't get anything done! -->
		<rect width="9%" height="100%" x="40.5%" fill="#cd3232" opacity="100%"/> 
		
		<rect width="9%" height="100%" x="50.6%" fill="green" opacity="100%"/>
		<rect width="9%" height="100%" x="60.7%" fill="green" opacity="100%"/>
		<rect width="9%" height="100%" x="70.8%" fill="green" opacity="100%"/>
		<rect width="9%" height="100%" x="80.9%" fill="green" opacity="100%"/>
		<rect width="9%" height="100%" x="91%" fill="green" opacity="100%"/>
	</g>
</g>

<!-- this is an animated mask which slowly reveals each section
in order to change the width, must add 'n%;n%;' to <animate>'s values, as well as altering width="n%" in the <rect> -->
<mask id="anim-mask">
	<rect fill="white" height="100%" width="60%" x="0">
		<!-- 70%;70%;80%;80%;90%;90%;100%;100%; -->
		<animate attributeName="width" values="0%;0%;0%;10%;10%;20%;20%;30%;30%;40%;40%;50%;50%;60%;60%;" dur="3.25s" repeatCount="1" />
	</rect>
</mask>

</svg>
